<mxfile host="app.diagrams.net" modified="2022-06-30T18:23:32.717Z" agent="5.0 (Macintosh; Intel Mac OS X 10_15_7) AppleWebKit/537.36 (KHTML, like Gecko) Chrome/102.0.0.0 Safari/537.36" etag="xuWQ5WXDrfLlwmzH21kJ" version="20.0.4" type="github">
  <diagram id="odFcvEqy4faVJ0Qp762f" name="Page-1">
    <mxGraphModel dx="715" dy="498" grid="1" gridSize="10" guides="1" tooltips="1" connect="1" arrows="1" fold="1" page="1" pageScale="1" pageWidth="850" pageHeight="1100" math="0" shadow="0">
      <root>
        <mxCell id="0" />
        <mxCell id="1" parent="0" />
        <mxCell id="9H6XtiMUP8h5_K6Hm6h_-23" style="edgeStyle=orthogonalEdgeStyle;rounded=0;orthogonalLoop=1;jettySize=auto;html=1;exitX=0.5;exitY=1;exitDx=0;exitDy=0;fontSize=10;" edge="1" parent="1" source="9H6XtiMUP8h5_K6Hm6h_-5" target="9H6XtiMUP8h5_K6Hm6h_-6">
          <mxGeometry relative="1" as="geometry" />
        </mxCell>
        <mxCell id="9H6XtiMUP8h5_K6Hm6h_-5" value="r_control$&lt;br&gt;MS_id" style="shape=parallelogram;html=1;strokeWidth=2;perimeter=parallelogramPerimeter;whiteSpace=wrap;rounded=1;arcSize=12;size=0.23;fontSize=10;" vertex="1" parent="1">
          <mxGeometry x="280" y="200" width="120" height="40" as="geometry" />
        </mxCell>
        <mxCell id="9H6XtiMUP8h5_K6Hm6h_-18" style="edgeStyle=orthogonalEdgeStyle;rounded=0;orthogonalLoop=1;jettySize=auto;html=1;exitX=0.5;exitY=1;exitDx=0;exitDy=0;entryX=0.5;entryY=0;entryDx=0;entryDy=0;fontSize=10;" edge="1" parent="1" source="9H6XtiMUP8h5_K6Hm6h_-6" target="9H6XtiMUP8h5_K6Hm6h_-17">
          <mxGeometry relative="1" as="geometry" />
        </mxCell>
        <mxCell id="9H6XtiMUP8h5_K6Hm6h_-6" value="&lt;meta charset=&quot;utf-8&quot;&gt;&lt;span style=&quot;color: rgb(0, 0, 0); font-family: Helvetica; font-size: 12px; font-style: normal; font-variant-ligatures: normal; font-variant-caps: normal; font-weight: 400; letter-spacing: normal; orphans: 2; text-align: center; text-indent: 0px; text-transform: none; widows: 2; word-spacing: 0px; -webkit-text-stroke-width: 0px; background-color: rgb(248, 249, 250); text-decoration-thickness: initial; text-decoration-style: initial; text-decoration-color: initial; float: none; display: inline !important;&quot;&gt;ods_menu.R&lt;/span&gt;" style="rounded=1;whiteSpace=wrap;html=1;absoluteArcSize=1;arcSize=14;strokeWidth=2;" vertex="1" parent="1">
          <mxGeometry x="360" y="290" width="130" height="60" as="geometry" />
        </mxCell>
        <mxCell id="9H6XtiMUP8h5_K6Hm6h_-15" style="edgeStyle=orthogonalEdgeStyle;rounded=0;orthogonalLoop=1;jettySize=auto;html=1;exitX=1;exitY=0.5;exitDx=0;exitDy=0;entryX=0;entryY=0.5;entryDx=0;entryDy=0;fontSize=10;" edge="1" parent="1" source="9H6XtiMUP8h5_K6Hm6h_-7" target="9H6XtiMUP8h5_K6Hm6h_-6">
          <mxGeometry relative="1" as="geometry" />
        </mxCell>
        <mxCell id="9H6XtiMUP8h5_K6Hm6h_-7" value="&lt;br&gt;User Input &lt;br&gt;(Menu)" style="html=1;strokeWidth=2;shape=manualInput;whiteSpace=wrap;rounded=1;size=26;arcSize=11;align=center;" vertex="1" parent="1">
          <mxGeometry x="160" y="290" width="100" height="60" as="geometry" />
        </mxCell>
        <mxCell id="9H6XtiMUP8h5_K6Hm6h_-20" style="edgeStyle=orthogonalEdgeStyle;rounded=0;orthogonalLoop=1;jettySize=auto;html=1;exitX=0.5;exitY=1;exitDx=0;exitDy=0;fontSize=10;" edge="1" parent="1" source="9H6XtiMUP8h5_K6Hm6h_-9" target="9H6XtiMUP8h5_K6Hm6h_-5">
          <mxGeometry relative="1" as="geometry" />
        </mxCell>
        <mxCell id="9H6XtiMUP8h5_K6Hm6h_-21" style="edgeStyle=orthogonalEdgeStyle;rounded=0;orthogonalLoop=1;jettySize=auto;html=1;exitX=0.5;exitY=1;exitDx=0;exitDy=0;entryX=0.611;entryY=-0.025;entryDx=0;entryDy=0;entryPerimeter=0;fontSize=10;" edge="1" parent="1" source="9H6XtiMUP8h5_K6Hm6h_-9" target="9H6XtiMUP8h5_K6Hm6h_-14">
          <mxGeometry relative="1" as="geometry" />
        </mxCell>
        <mxCell id="9H6XtiMUP8h5_K6Hm6h_-9" value="Served Module&lt;br&gt;(anywhere in the APP)" style="rounded=1;whiteSpace=wrap;html=1;absoluteArcSize=1;arcSize=14;strokeWidth=2;" vertex="1" parent="1">
          <mxGeometry x="360" y="80" width="130" height="60" as="geometry" />
        </mxCell>
        <mxCell id="9H6XtiMUP8h5_K6Hm6h_-22" style="edgeStyle=orthogonalEdgeStyle;rounded=0;orthogonalLoop=1;jettySize=auto;html=1;exitX=0.5;exitY=1;exitDx=0;exitDy=0;entryX=0.5;entryY=0;entryDx=0;entryDy=0;fontSize=10;" edge="1" parent="1" source="9H6XtiMUP8h5_K6Hm6h_-14" target="9H6XtiMUP8h5_K6Hm6h_-6">
          <mxGeometry relative="1" as="geometry" />
        </mxCell>
        <mxCell id="9H6XtiMUP8h5_K6Hm6h_-14" value="r_control$&lt;br&gt;MS_default" style="shape=parallelogram;html=1;strokeWidth=2;perimeter=parallelogramPerimeter;whiteSpace=wrap;rounded=1;arcSize=12;size=0.23;fontSize=10;" vertex="1" parent="1">
          <mxGeometry x="450" y="200" width="120" height="40" as="geometry" />
        </mxCell>
        <mxCell id="9H6XtiMUP8h5_K6Hm6h_-16" value="Served Module&lt;br&gt;(anywhere in the APP)" style="rounded=1;whiteSpace=wrap;html=1;absoluteArcSize=1;arcSize=14;strokeWidth=2;" vertex="1" parent="1">
          <mxGeometry x="360" y="480" width="130" height="60" as="geometry" />
        </mxCell>
        <mxCell id="9H6XtiMUP8h5_K6Hm6h_-19" style="edgeStyle=orthogonalEdgeStyle;rounded=0;orthogonalLoop=1;jettySize=auto;html=1;exitX=0.5;exitY=1;exitDx=0;exitDy=0;fontSize=10;" edge="1" parent="1" source="9H6XtiMUP8h5_K6Hm6h_-17" target="9H6XtiMUP8h5_K6Hm6h_-16">
          <mxGeometry relative="1" as="geometry" />
        </mxCell>
        <mxCell id="9H6XtiMUP8h5_K6Hm6h_-17" value="r_control$&lt;br&gt;MS_user_input" style="shape=parallelogram;html=1;strokeWidth=2;perimeter=parallelogramPerimeter;whiteSpace=wrap;rounded=1;arcSize=12;size=0.23;fontSize=10;" vertex="1" parent="1">
          <mxGeometry x="365" y="400" width="120" height="40" as="geometry" />
        </mxCell>
      </root>
    </mxGraphModel>
  </diagram>
</mxfile>
